<?xml version="1.0" encoding="UTF-8"?>
<svg width="19px" height="19px" viewBox="0 0 19 19" version="1.1" xmlns="http://www.w3.org/2000/svg" xmlns:xlink="http://www.w3.org/1999/xlink">
    <!-- Generator: Sketch 41.2 (35397) - http://www.bohemiancoding.com/sketch -->
    <title>Instagram</title>
    <desc>Created with Sketch.</desc>
    <defs>
        <rect id="path-1" x="0" y="0" width="30" height="30"></rect>
        <mask id="mask-2" maskContentUnits="userSpaceOnUse" maskUnits="objectBoundingBox" x="0" y="0" width="30" height="30" fill="white">
            <use xlink:href="#path-1"></use>
        </mask>
    </defs>
    <g id="Brand-Design" stroke="none" stroke-width="1" fill="none" fill-rule="evenodd">
        <g id="Program-Logos" transform="translate(-729.000000, -696.000000)">
            <g id="Instagram" transform="translate(723.000000, 690.000000)">
                <use id="Rectangle" stroke="#979797" mask="url(#mask-2)" stroke-width="2" opacity="0" xlink:href="#path-1"></use>
                <path d="M22.4929412,6 L8.02705882,6 C6.90705882,6 6,6.91675 6,8.0460625 L6,22.7045625 C6,23.8350625 6.90705882,24.7518125 8.02705882,24.7518125 L22.4929412,24.7518125 C23.6129412,24.7518125 24.5211765,23.8350625 24.5211765,22.7045625 L24.5211765,8.0460625 C24.5211765,6.91675 23.6129412,6 22.4929412,6 Z M15.2764706,11.749875 C17.2482353,11.749875 18.8470588,13.3636875 18.8470588,15.3539375 C18.8470588,17.3441875 17.2482353,18.9591875 15.2764706,18.9591875 C13.3047059,18.9591875 11.7058824,17.3441875 11.7058824,15.3539375 C11.7058824,13.3636875 13.3047059,11.749875 15.2764706,11.749875 Z M22.4176471,21.84125 C22.4176471,22.2390625 22.0988235,22.5620625 21.7035294,22.5620625 L8.84941176,22.5620625 C8.45411765,22.5620625 8.13529412,22.2390625 8.13529412,21.84125 L8.13529412,13.9123125 L9.75176471,13.9123125 C9.63294118,14.3730625 9.56352941,14.8551875 9.56352941,15.3539375 C9.56352941,18.5388125 12.1211765,21.1204375 15.2764706,21.1204375 C18.4317647,21.1204375 20.9894118,18.5388125 20.9894118,15.3539375 C20.9894118,14.8551875 20.92,14.3730625 20.8011765,13.9123125 L22.4176471,13.9123125 L22.4176471,21.84125 Z M22.4176471,11.0290625 C22.4176471,11.426875 22.0988235,11.749875 21.7035294,11.749875 L19.5611765,11.749875 C19.1670588,11.749875 18.8470588,11.426875 18.8470588,11.0290625 L18.8470588,8.866625 C18.8470588,8.4688125 19.1670588,8.1458125 19.5611765,8.1458125 L21.7035294,8.1458125 C22.0988235,8.1458125 22.4176471,8.4688125 22.4176471,8.866625 L22.4176471,11.0290625 Z" id="Instagram-Icon" fill="#646364"></path>
            </g>
        </g>
    </g>
</svg>