<svg fill="#414b56" viewBox="0 0 16 22" xmlns="http://www.w3.org/2000/svg">
  <title>Tumblr</title>
  <path d="M8.9422.633v4.5948h4.9934v3.548H8.9422v5.0946c0 1.1527-.0153 1.8176.1168 2.1442.132.325.463.6626.8228.8572.479.264 1.0233.3956 1.6385.3956 1.0936 0 2.1814-.3266 3.263-.9802v3.133c-.9214.3996-1.7578.6814-2.506.8413-.749.16-1.5574.2422-2.427.2422-.9875 0-1.5702-.115-2.328-.3432-.7593-.231-1.4065-.559-1.9414-.981-.5377-.425-.9076-.877-1.1148-1.3545-.2075-.479-.311-1.1725-.311-2.081V8.7758H1.221V5.9613c.8482-.253 1.8316-.6165 2.4354-1.0896.6065-.4748 1.0918-1.0425 1.457-1.7066.3676-.6624.6195-1.5074.7578-2.5317h3.0708V.633z"></path>
</svg>
