<?xml version="1.0" encoding="UTF-8"?>
<svg width="24px" height="20px" viewBox="0 0 24 20" version="1.1" xmlns="http://www.w3.org/2000/svg" xmlns:xlink="http://www.w3.org/1999/xlink">
    <!-- Generator: Sketch 41.2 (35397) - http://www.bohemiancoding.com/sketch -->
    <title>Twitter</title>
    <desc>Created with Sketch.</desc>
    <defs>
        <rect id="path-1" x="0" y="0" width="30" height="30"></rect>
        <mask id="mask-2" maskContentUnits="userSpaceOnUse" maskUnits="objectBoundingBox" x="0" y="0" width="30" height="30" fill="white">
            <use xlink:href="#path-1"></use>
        </mask>
    </defs>
    <g id="Brand-Design" stroke="none" stroke-width="1" fill="none" fill-rule="evenodd">
        <g id="Program-Logos" transform="translate(-681.000000, -695.000000)">
            <g id="Twitter" transform="translate(678.000000, 690.000000)">
                <use id="Rectangle" stroke="#979797" mask="url(#mask-2)" stroke-width="2" opacity="0" xlink:href="#path-1"></use>
                <path d="M24.5957265,10.5026128 C24.5957265,17.021 19.6340588,24.5371303 10.561209,24.5371303 C7.77534225,24.5371303 5.18331413,23.7212049 3,22.322261 C3.38767725,22.3658371 3.77986238,22.3898791 4.17655538,22.3898791 C6.48909525,22.3898791 8.613807,21.6025036 10.3012549,20.278691 C8.144988,20.2381201 6.32230388,18.812129 5.69570925,16.8542086 C5.99623425,16.9098058 6.30427238,16.9428635 6.62282888,16.9428635 C7.07361638,16.9428635 7.50937763,16.8812559 7.92109688,16.768559 C5.66715938,16.3147663 3.96618788,14.3222855 3.96618788,11.9331118 L3.96618788,11.8715041 C4.63185075,12.2411499 5.392179,12.4605331 6.20059125,12.4875804 C4.87677863,11.6040369 4.00675875,10.0923961 4.00675875,8.38090625 C4.00675875,7.47782863 4.250184,6.6288455 4.67392425,5.901575 C7.1051715,8.88578825 10.741524,10.8497191 14.840685,11.0555788 C14.756538,10.6934461 14.7129619,10.3177899 14.7129619,9.93161525 C14.7129619,7.20735613 16.9218206,5 19.6460798,5 C21.0645578,5 22.3462969,5.59954738 23.2463693,6.5567195 C24.3688301,6.33583363 25.4251755,5.925617 26.3793424,5.35912738 C26.0096966,6.51164075 25.2283316,7.47782863 24.2095519,8.08789438 C25.2072949,7.97068963 26.1584565,7.70322238 27.042,7.31253988 C26.3823476,8.30276975 25.5453855,9.171287 24.5807003,9.86700238 C24.5912186,10.0773699 24.5957265,10.28924 24.5957265,10.5026128 Z" id="Twitter-Icon" fill="#FFFFFF"></path>
            </g>
        </g>
    </g>
</svg>