<svg version="1.1" xmlns="http://www.w3.org/2000/svg" xmlns:xlink="http://www.w3.org/1999/xlink" x="0px" y="0px" width="54px" height="54px" viewBox="0 0 54 54" style="enable-background:new 0 0 54 54;" xml:space="preserve"><circle fill="#FEEADE" cx="27" cy="27" r="19.5"/><g><g><path fill="#0000AA" d="M30,49.5h-6c-0.3,0-0.5-0.2-0.5-0.5s0.2-0.5,0.5-0.5h6c0.3,0,0.5,0.2,0.5,0.5S30.3,49.5,30,49.5z"/></g><g><path fill="#0000AA" d="M28,53.5h-2c-0.3,0-0.5-0.2-0.5-0.5s0.2-0.5,0.5-0.5h2c0.3,0,0.5,0.2,0.5,0.5S28.3,53.5,28,53.5z"/></g><g><path fill="#0000AA" d="M31,45.5h-8c-0.3,0-0.5-0.2-0.5-0.5v-3.1c-7.1-2-12-8.5-12-15.9c0-9.1,7.4-16.5,16.5-16.5S43.5,16.9,43.5,26c0,7.4-4.9,13.9-12,15.9V45C31.5,45.3,31.3,45.5,31,45.5z M23.5,44.5h7v-3c0-0.2,0.2-0.4,0.4-0.5c6.8-1.8,11.6-7.9,11.6-15c0-8.5-7-15.5-15.5-15.5s-15.5,7-15.5,15.5c0,7.1,4.8,13.2,11.6,15c0.2,0.1,0.4,0.3,0.4,0.5V44.5z"/></g><g><path fill="#0000AA" d="M5,25.5H1c-0.3,0-0.5-0.2-0.5-0.5s0.2-0.5,0.5-0.5h4c0.3,0,0.5,0.2,0.5,0.5S5.3,25.5,5,25.5z"/></g><g><path fill="#0000AA" d="M12,12.5c-0.1,0-0.3,0-0.4-0.1l-5-5c-0.2-0.2-0.2-0.5,0-0.7s0.5-0.2,0.7,0l5,5c0.2,0.2,0.2,0.5,0,0.7C12.3,12.5,12.1,12.5,12,12.5z"/></g><g><path fill="#0000AA" d="M27,5.5c-0.3,0-0.5-0.2-0.5-0.5V1c0-0.3,0.2-0.5,0.5-0.5s0.5,0.2,0.5,0.5v4C27.5,5.3,27.3,5.5,27,5.5z"/></g><g><path fill="#0000AA" d="M42,12.5c-0.1,0-0.3,0-0.4-0.1c-0.2-0.2-0.2-0.5,0-0.7l5-5c0.2-0.2,0.5-0.2,0.7,0s0.2,0.5,0,0.7l-5,5C42.3,12.5,42.1,12.5,42,12.5z"/></g><g><path fill="#0000AA" d="M53,25.5h-4c-0.3,0-0.5-0.2-0.5-0.5s0.2-0.5,0.5-0.5h4c0.3,0,0.5,0.2,0.5,0.5S53.3,25.5,53,25.5z"/></g></g></svg>