<svg version="1.1" xmlns="http://www.w3.org/2000/svg" xmlns:xlink="http://www.w3.org/1999/xlink" x="0px" y="0px" width="54px" height="54px" viewBox="0 0 54 54" style="enable-background:new 0 0 54 54;" xml:space="preserve"><circle fill="#FEEADE" cx="27" cy="27" r="19.5"/><path fill="#0000AA" d="M48.6,28.2c-1.4,0-2.6,0.7-3.3,1.8l-6.4-3c0.4-1.1,0.7-2.2,0.7-3.5c0-2.3-0.9-4.5-2.3-6.1l8.9-8.9c0.7,0.5,1.5,0.8,2.4,0.8c2.2,0,3.9-1.8,3.9-3.9s-1.8-3.9-3.9-3.9s-3.9,1.8-3.9,3.9c0,0.9,0.3,1.7,0.8,2.4l-8.9,8.9c-1.6-1.4-3.7-2.3-6.1-2.3c-3.6,0-6.7,2.1-8.2,5.2l-13-5.4c0.1-0.3,0.2-0.7,0.2-1c0-2.2-1.8-3.9-3.9-3.9S1.5,11,1.5,13.2s1.8,3.9,3.9,3.9c1.5,0,2.7-0.8,3.4-2l13,5.4c-0.3,0.9-0.5,2-0.5,3c0,2.3,0.9,4.5,2.3,6.1L7.9,45.4c-0.7-0.5-1.5-0.8-2.4-0.8c-2.2,0-3.9,1.8-3.9,3.9s1.8,3.9,3.9,3.9s3.9-1.8,3.9-3.9c0-0.9-0.3-1.7-0.8-2.4l15.8-15.8c1.6,1.4,3.8,2.3,6.2,2.3c0.1,0,0.5,0,0.5,0v12c-2,0.2-3.5,1.9-3.5,3.9c0,2.2,1.7,3.9,3.9,3.9s4-1.8,4-3.9c0-2-1.4-3.6-3.4-3.9v-12c3-0.4,5.2-2.2,6.5-4.6l6.3,3c-0.1,0.4-0.2,0.8-0.2,1.2c0,2.2,1.8,3.9,3.9,3.9s3.9-1.8,3.9-3.9S50.7,28.2,48.6,28.2z M5.4,16.2c-1.6,0-2.9-1.3-2.9-2.9s1.3-2.9,2.9-2.9s2.9,1.3,2.9,2.9S7.1,16.2,5.4,16.2z M34.3,48.6c0,1.6-1.3,2.9-2.9,2.9s-2.9-1.3-2.9-2.9s1.3-2.9,2.9-2.9S34.3,46.9,34.3,48.6z M48.6,2.5c1.6,0,2.9,1.3,2.9,2.9s-1.3,2.9-2.9,2.9S45.7,7,45.7,5.4S46.9,2.5,48.6,2.5z M5.4,51.5c-1.6,0-2.9-1.3-2.9-2.9s1.3-2.9,2.9-2.9s2.9,1.3,2.9,2.9S7.1,51.5,5.4,51.5z M30.4,31.7c-4.5,0-8.1-3.6-8.1-8.1s3.6-8.1,8.1-8.1s8.1,3.6,8.1,8.1S34.9,31.7,30.4,31.7z M48.6,35.1c-1.6,0-2.9-1.3-2.9-2.9s1.3-2.9,2.9-2.9s2.9,1.3,2.9,2.9C51.5,33.8,50.2,35.1,48.6,35.1z"/></svg>