<svg version="1.1" xmlns="http://www.w3.org/2000/svg" xmlns:xlink="http://www.w3.org/1999/xlink" x="0px" y="0px" width="54px" height="54px" viewBox="0 0 54 54" style="enable-background:new 0 0 54 54;" xml:space="preserve"><circle fill="#FEEADE" cx="27" cy="27" r="19.5"/><g><path fill="#0000AA" d="M41.3,33.5C41.2,33.3,41,33,40.8,33H30.4l-3.3-12.2c-0.1-0.2-0.3-0.3-0.5-0.3s-0.4,0.1-0.5,0.3L23.7,33H13.1c-0.2,0-0.4,0.3-0.5,0.5s0,0.5,0.2,0.6l8.2,6.6l-4.1,9.8c-0.1,0.2,0,0.5,0.2,0.6s0.4,0.1,0.6,0l9-7.4l9.8,7.4c0.1,0.1,0.2,0.1,0.3,0.1s0.2,0,0.3-0.1c0.2-0.1,0.2-0.4,0.2-0.6l-4.1-9.8l8-6.6C41.3,34,41.4,33.7,41.3,33.5z M32.3,40c-0.2,0.1-0.2,0.4-0.1,0.6l3.5,8.5L27,42.7c-0.1-0.1-0.2-0.1-0.3-0.1c-0.1,0-0.2,0-0.3,0.1L18.6,49l3.5-8.3c0.1-0.2,0-0.6-0.1-0.7l-7.3-6h9.6c0.2,0,0.4,0,0.5-0.3l2.1-10.5l2.8,10.5c0.1,0.2,0.3,0.3,0.5,0.3h9.4L32.3,40z"/><path fill="#0000AA" d="M19.6,26.2c0.3-0.1,0.4-0.2,0.4-0.5L15.9,4H23v13.2c0,0.3,0.2,0.5,0.5,0.5s0.5-0.2,0.5-0.5V4h6v13.2c0,0.3,0.2,0.5,0.5,0.5s0.5-0.2,0.5-0.5V4h7.1L34,25.7c-0.1,0.3,0.1,0.5,0.4,0.5h0.1c0.2,0,0.4-0.2,0.5-0.4l4.3-22.4c0-0.1,0-0.2-0.1-0.3C39,3,38.9,3,38.7,3H15.3c-0.1,0-0.3,0-0.4,0.1c-0.1,0.1-0.1,0.2-0.1,0.4L19,25.8C19.1,26.1,19.4,26.3,19.6,26.2z"/></g></svg>