<?xml version="1.0" encoding="UTF-8"?>
<svg width="502px" height="50px" viewBox="0 0 502 50" version="1.1" xmlns="http://www.w3.org/2000/svg" xmlns:xlink="http://www.w3.org/1999/xlink">
    <!-- Generator: Sketch 41.2 (35397) - http://www.bohemiancoding.com/sketch -->
    <title>Indicator</title>
    <desc>Created with Sketch.</desc>
    <defs>
        <path d="M0,25 C0,38.8107143 11.1928571,50 25,50 C38.8071429,50 50,38.8107143 50,25 C50,11.1964286 38.8071429,0 25,0 C11.1928571,0 0,11.1964286 0,25 Z" id="path-1"></path>
        <mask id="mask-2" maskContentUnits="userSpaceOnUse" maskUnits="objectBoundingBox" x="0" y="0" width="50" height="50" fill="white">
            <use xlink:href="#path-1"></use>
        </mask>
        <path d="M0,25 C0,38.8107143 11.1928571,50 25,50 C38.8071429,50 50,38.8107143 50,25 C50,11.1964286 38.8071429,0 25,0 C11.1928571,0 0,11.1964286 0,25 Z" id="path-3"></path>
        <mask id="mask-4" maskContentUnits="userSpaceOnUse" maskUnits="objectBoundingBox" x="0" y="0" width="50" height="50" fill="white">
            <use xlink:href="#path-3"></use>
        </mask>
        <path d="M0,25 C0,38.8107143 11.1928571,50 25,50 C38.8071429,50 50,38.8107143 50,25 C50,11.1964286 38.8071429,0 25,0 C11.1928571,0 0,11.1964286 0,25 Z" id="path-5"></path>
        <mask id="mask-6" maskContentUnits="userSpaceOnUse" maskUnits="objectBoundingBox" x="0" y="0" width="50" height="50" fill="white">
            <use xlink:href="#path-5"></use>
        </mask>
    </defs>
    <g id="Mobile" stroke="none" stroke-width="1" fill="none" fill-rule="evenodd">
        <g id="6a-Sign-Up" transform="translate(-114.000000, -158.000000)">
            <g id="Indicator" transform="translate(114.000000, 158.000000)">
                <g id="3" transform="translate(472.000000, 0.000000)">
                    <use id="Oval" stroke="#0000AD" mask="url(#mask-2)" stroke-width="2" opacity="0" xlink:href="#path-1"></use>
                    <circle id="Oval" fill="#0000AD" cx="25" cy="25" r="5"></circle>
                </g>
                <path d="M306.5,25 L451.146118,25" id="line" stroke="#0000AD" stroke-width="2" stroke-linecap="square" opacity="0.3"></path>
                <g id="2" transform="translate(236.000000, 0.000000)">
                    <use id="Oval" stroke="#0000AD" mask="url(#mask-4)" stroke-width="2" opacity="0" xlink:href="#path-3"></use>
                    <circle id="Oval" fill="#0000AD" cx="25" cy="25" r="5"></circle>
                </g>
                <path d="M70.5,25 L215.146118,25" id="Line" stroke="#0000AD" stroke-width="2" stroke-linecap="square" opacity="0.3"></path>
                <g id="1">
                    <use id="Oval" stroke="#0000AD" mask="url(#mask-6)" stroke-width="4" opacity="0.3" xlink:href="#path-5"></use>
                    <circle id="Oval" fill="#FCB94C" cx="25" cy="25" r="5"></circle>
                </g>
            </g>
        </g>
    </g>
</svg>