<?xml version="1.0" encoding="UTF-8"?>
<svg width="346px" height="30px" viewBox="0 0 346 30" version="1.1" xmlns="http://www.w3.org/2000/svg" xmlns:xlink="http://www.w3.org/1999/xlink">
    <!-- Generator: Sketch 41.2 (35397) - http://www.bohemiancoding.com/sketch -->
    <title>#BUILTBYGIRLS</title>
    <desc>Created with Sketch.</desc>
    <defs></defs>
    <g id="Mobile" stroke="none" stroke-width="1" fill="none" fill-rule="evenodd">
        <g id="1-Home" transform="translate(-201.000000, -68.000000)" fill="#0000AD">
            <g id="Nav">
                <path d="M223.46,80.28 L228.94,80.28 L229.46,75.52 L224.06,75.52 L224.86,69 L219.9,69 L219.1,75.52 L213.5,75.52 L214.3,69 L209.34,69 L208.54,75.52 L203.14,75.52 L202.62,80.28 L207.94,80.28 L207.26,86 L201.82,86 L201.26,90.76 L206.66,90.76 L205.9,97 L210.86,97 L211.62,90.76 L217.18,90.76 L216.42,97 L221.38,97 L222.14,90.76 L227.58,90.76 L228.14,86 L222.74,86 L223.46,80.28 Z M218.5,80.28 L217.78,86 L212.22,86 L212.94,80.28 L218.5,80.28 Z M234.86,69 L234.86,97 L248.58,97 C255.18,97 259.34,94 259.34,89.24 C259.34,85.6 257.1,82.84 253.58,82.16 C256.54,81.32 258.38,78.96 258.38,76 C258.38,71.72 254.38,69 248.1,69 L234.86,69 Z M241.94,74.44 L247.7,74.44 C249.78,74.44 251.1,75.48 251.1,77.28 C251.1,79.08 249.78,80.2 247.7,80.2 L241.94,80.2 L241.94,74.44 Z M241.94,85.32 L247.7,85.32 C250.34,85.32 251.98,86.48 251.98,88.36 C251.98,90.36 250.34,91.52 247.7,91.52 L241.94,91.52 L241.94,85.32 Z M290.66,69 L283.58,69 L283.58,85.24 C283.58,89.04 281.3,91.36 277.94,91.36 C274.54,91.36 272.1,89.04 272.1,85.24 L272.1,69 L264.98,69 L264.98,85.24 C264.98,92.64 270.02,97.32 277.9,97.32 C285.74,97.32 290.66,92.64 290.66,85.24 L290.66,69 Z M304.9,97 L304.9,69 L297.78,69 L297.78,97 L304.9,97 Z M319.62,91.04 L319.62,69 L312.5,69 L312.5,97 L331.5,97 L331.5,91.04 L319.62,91.04 Z M358.3,74.72 L358.3,68.96 L334.38,68.96 L334.38,74.72 L342.74,74.72 L342.74,97 L349.86,97 L349.86,74.72 L358.3,74.72 Z M363.34,69 L363.34,97 L377.06,97 C383.66,97 387.82,94 387.82,89.24 C387.82,85.6 385.58,82.84 382.06,82.16 C385.02,81.32 386.86,78.96 386.86,76 C386.86,71.72 382.86,69 376.58,69 L363.34,69 Z M370.42,74.44 L376.18,74.44 C378.26,74.44 379.58,75.48 379.58,77.28 C379.58,79.08 378.26,80.2 376.18,80.2 L370.42,80.2 L370.42,74.44 Z M370.42,85.32 L376.18,85.32 C378.82,85.32 380.46,86.48 380.46,88.36 C380.46,90.36 378.82,91.52 376.18,91.52 L370.42,91.52 L370.42,85.32 Z M408.38,87.96 L418.54,69 L411.42,69 L404.82,81.2 L398.06,69 L390.94,69 L401.3,88.16 L401.3,97 L408.38,97 L408.38,87.96 Z M441.18,82.76 L441.18,90 C439.5,90.84 437.66,91.36 436.22,91.36 C431.58,91.36 428.02,87.76 428.02,83 C428.02,78.32 431.54,74.72 436.14,74.72 C438.74,74.72 441.58,75.88 443.62,77.76 L447.62,72.92 C444.74,70.36 440.34,68.76 436.18,68.76 C427.34,68.76 420.74,74.88 420.74,83 C420.74,91.16 427.18,97.32 435.7,97.32 C439.62,97.32 444.34,95.8 447.34,93.68 L447.34,82.76 L441.18,82.76 Z M461.42,97 L461.42,69 L454.3,69 L454.3,97 L461.42,97 Z M485.9,97 L493.98,97 L488.1,87.76 C491.38,86.12 493.18,83.04 493.18,78.76 C493.18,72.52 488.94,69 481.54,69 L469.02,69 L469.02,97 L476.14,97 L476.14,89.12 L481.74,89.12 L485.9,97 Z M476.14,83.52 L476.14,74.6 L481.54,74.6 C484.62,74.6 486.42,76.08 486.42,79 C486.42,81.96 484.62,83.52 481.54,83.52 L476.14,83.52 Z M507.1,91.04 L507.1,69 L499.98,69 L499.98,97 L518.98,97 L518.98,91.04 L507.1,91.04 Z M535.14,68.68 C528.42,68.68 523.98,71.96 523.98,77.12 C523.98,87.04 538.78,84.08 538.78,89.04 C538.78,90.64 537.38,91.48 535.14,91.48 C532.22,91.48 527.9,89.8 525.02,87.28 L522.26,92.76 C525.58,95.48 530.38,97.24 535.06,97.24 C541.3,97.24 546.26,94.28 546.26,88.68 C546.26,78.56 531.46,81.32 531.46,76.48 C531.46,75.12 532.7,74.44 534.54,74.44 C536.82,74.44 540.54,75.64 543.5,77.36 L546.18,71.8 C543.3,69.92 539.18,68.68 535.14,68.68 Z" id="#BUILTBYGIRLS"></path>
            </g>
        </g>
    </g>
</svg>