<?xml version="1.0" encoding="UTF-8"?>
<svg width="621px" height="53px" viewBox="0 0 621 53" version="1.1" xmlns="http://www.w3.org/2000/svg" xmlns:xlink="http://www.w3.org/1999/xlink">
    <!-- Generator: Sketch 41.2 (35397) - http://www.bohemiancoding.com/sketch -->
    <title>ADVISOR PLATFORM</title>
    <desc>Created with Sketch.</desc>
    <defs></defs>
    <g id="Brand-Design" stroke="none" stroke-width="1" fill="none" fill-rule="evenodd">
        <g id="Program-Logos" transform="translate(-101.000000, -478.000000)" fill="#0000AD">
            <path d="M142.257812,530 L138.074219,530 L133.609375,517.554688 L109.703125,517.554688 L105.273438,530 L101.089844,530 L119.933594,478.742188 L123.414062,478.742188 L142.257812,530 Z M132.414062,514.074219 L121.65625,483.910156 L110.933594,514.074219 L132.414062,514.074219 Z M183.673438,502.050781 L183.673438,505.320312 C183.673438,509.820335 183.362894,513.757796 182.741797,517.132812 C182.1207,520.507829 180.767198,523.238271 178.68125,525.324219 C177.673433,526.332036 176.513288,527.181637 175.200781,527.873047 C173.888275,528.564457 172.452742,529.091795 170.894141,529.455078 C169.335539,529.818361 167.665634,530 165.884375,530 L148.657813,530 L148.657813,478.742188 L165.884375,478.742188 C167.665634,478.742188 169.335539,478.923826 170.894141,479.287109 C172.452742,479.650392 173.882415,480.171872 175.183203,480.851562 C176.483991,481.531253 177.649995,482.386714 178.68125,483.417969 C180.790636,485.503917 182.149997,488.064438 182.759375,491.099609 C183.368753,494.134781 183.673438,497.785135 183.673438,502.050781 Z M179.771094,505.882812 L179.771094,501.488281 C179.771094,497.878888 179.536721,494.826184 179.067969,492.330078 C178.599217,489.833972 177.556258,487.777352 175.939063,486.160156 C173.384362,483.511706 169.71643,482.1875 164.935156,482.1875 L152.560156,482.1875 L152.560156,526.554688 L164.935156,526.554688 C169.71643,526.554688 173.384362,525.230482 175.939063,522.582031 C177.556258,520.964836 178.599217,518.755873 179.067969,515.955078 C179.536721,513.154283 179.771094,509.796895 179.771094,505.882812 Z M224.702344,478.742188 L207.8625,530 L204.557813,530 L187.682813,478.742188 L191.796094,478.742188 L206.210156,523.144531 L220.589063,478.742188 L224.702344,478.742188 Z M234.653125,530 L230.750782,530 L230.750782,478.742188 L234.653125,478.742188 L234.653125,530 Z M277.967188,516.253906 C277.967188,518.363292 277.574614,520.302726 276.789454,522.072266 C276.004293,523.841806 274.867586,525.341791 273.379297,526.572266 C271.891009,527.802741 270.062902,528.75195 267.894922,529.419922 C265.726943,530.087894 263.330482,530.421875 260.705469,530.421875 C258.267957,530.421875 256.041417,530.187502 254.025782,529.71875 C252.010147,529.249998 250.158603,528.511724 248.471094,527.503906 C246.783586,526.496089 245.166414,525.218758 243.619532,523.671875 L246.361719,520.929688 C247.908602,522.47657 249.396868,523.689449 250.826563,524.568359 C252.256258,525.44727 253.791398,526.068358 255.432032,526.431641 C257.072665,526.794924 258.900772,526.976562 260.916407,526.976562 C263.611733,526.976562 265.943741,526.560551 267.9125,525.728516 C269.88126,524.89648 271.404682,523.677742 272.482813,522.072266 C273.560943,520.466789 274.1,518.57423 274.1,516.394531 C274.1,513.253891 273.16251,510.851571 271.2875,509.1875 C270.420309,508.437496 269.459381,507.869143 268.404688,507.482422 C267.349995,507.095701 265.838291,506.750002 263.869532,506.445312 L257.892969,505.53125 C254.002325,504.94531 250.95548,503.691416 248.752344,501.769531 C246.057018,499.51952 244.709375,496.378926 244.709375,492.347656 C244.709375,490.191395 245.090231,488.240243 245.851954,486.494141 C246.613676,484.748038 247.674212,483.27149 249.033594,482.064453 C250.392976,480.857416 252.06874,479.931644 254.060938,479.287109 C256.053135,478.642575 258.24452,478.320312 260.635157,478.320312 C263.75236,478.320312 266.435927,478.759761 268.685938,479.638672 C270.935949,480.517583 273.174208,481.917959 275.400782,483.839844 L272.869532,486.371094 C271.064835,484.753898 269.242588,483.558598 267.402735,482.785156 C265.562882,482.011715 263.236733,481.625 260.424219,481.625 C256.721076,481.625 253.814855,482.574209 251.705469,484.472656 C249.596084,486.371103 248.541407,488.949202 248.541407,492.207031 C248.541407,495.183609 249.420304,497.410149 251.178125,498.886719 C252.139068,499.66016 253.31679,500.333982 254.711329,500.908203 C256.105867,501.482425 257.482806,501.86328 258.842188,502.050781 L264.361719,502.929688 C266.728918,503.281252 268.580462,503.703123 269.916407,504.195312 C271.252351,504.687502 272.447651,505.39062 273.502344,506.304688 C274.955476,507.500006 276.062887,508.947257 276.82461,510.646484 C277.586332,512.345712 277.967188,514.214834 277.967188,516.253906 Z M320.648438,504.371094 C320.648438,508.988304 320.566408,512.386708 320.402344,514.566406 C320.238281,516.746105 319.828129,518.679679 319.171875,520.367188 C318.515622,522.054696 317.425789,523.660149 315.902344,525.183594 C314.238273,526.847665 312.29884,528.136714 310.083985,529.050781 C307.86913,529.964848 305.542981,530.421875 303.105469,530.421875 C300.667957,530.421875 298.335949,529.964848 296.109375,529.050781 C293.882802,528.136714 291.937509,526.847665 290.273438,525.183594 C288.749993,523.660149 287.66016,522.054696 287.003907,520.367188 C286.347653,518.679679 285.937501,516.746105 285.773438,514.566406 C285.609375,512.386708 285.527344,508.988304 285.527344,504.371094 C285.527344,499.753883 285.609375,496.35548 285.773438,494.175781 C285.937501,491.996083 286.347653,490.062508 287.003907,488.375 C287.66016,486.687492 288.749993,485.082039 290.273438,483.558594 C291.937509,481.894523 293.876943,480.605473 296.091797,479.691406 C298.306652,478.777339 300.644519,478.320312 303.105469,478.320312 C305.566419,478.320312 307.898427,478.777339 310.101563,479.691406 C312.304699,480.605473 314.238273,481.894523 315.902344,483.558594 C317.425789,485.082039 318.515622,486.687492 319.171875,488.375 C319.828129,490.062508 320.238281,491.996083 320.402344,494.175781 C320.566408,496.35548 320.648438,499.753883 320.648438,504.371094 Z M316.78125,504.371094 C316.78125,500.316386 316.69922,497.222667 316.535157,495.089844 C316.371093,492.957021 316.007816,491.15821 315.445313,489.693359 C314.88281,488.228508 314.003913,486.898443 312.808594,485.703125 C311.496088,484.390618 310.013681,483.406253 308.361329,482.75 C306.708977,482.093747 304.957041,481.765625 303.105469,481.765625 C301.277335,481.765625 299.525399,482.093747 297.84961,482.75 C296.17382,483.406253 294.679695,484.390618 293.367188,485.703125 C292.453121,486.617192 291.744144,487.566401 291.240235,488.550781 C290.736326,489.535161 290.343752,490.777336 290.0625,492.277344 C289.781249,493.777351 289.60547,495.488272 289.535157,497.410156 C289.464844,499.332041 289.429688,501.65233 289.429688,504.371094 C289.429688,508.425802 289.511718,511.513661 289.675782,513.634766 C289.839845,515.75587 290.203123,517.55468 290.765625,519.03125 C291.328128,520.50782 292.195307,521.832025 293.367188,523.003906 C294.656257,524.292975 296.144523,525.27734 297.832032,525.957031 C299.51954,526.636722 301.277335,526.976562 303.105469,526.976562 C304.957041,526.976562 306.714836,526.636722 308.378907,525.957031 C310.042978,525.27734 311.519525,524.292975 312.808594,523.003906 C314.02735,521.78515 314.912107,520.449226 315.462891,518.996094 C316.013675,517.542961 316.371093,515.75587 316.535157,513.634766 C316.69922,511.513661 316.78125,508.425802 316.78125,504.371094 Z M366.634376,530 L362.099219,530 L349.864844,506.375 L335.767188,506.375 L335.767188,530 L331.864844,530 L331.864844,478.742188 L351.376563,478.742188 C354.212515,478.742188 356.73788,479.275385 358.952735,480.341797 C361.16759,481.408208 362.907807,482.978505 364.173438,485.052734 C365.439069,487.126963 366.071876,489.605454 366.071876,492.488281 C366.071876,496.2383 365.023058,499.3203 362.925391,501.734375 C360.827724,504.14845 357.939081,505.671872 354.259376,506.304688 L366.634376,530 Z M362.169532,492.558594 C362.169532,489.160139 361.144151,486.58204 359.09336,484.824219 C357.042568,483.066397 354.306268,482.1875 350.884376,482.1875 L335.767188,482.1875 L335.767188,502.929688 L350.884376,502.929688 C352.548446,502.929688 354.071869,502.712893 355.454688,502.279297 C356.837507,501.845701 358.021089,501.207035 359.005469,500.363281 C359.989849,499.519527 360.763279,498.441413 361.325782,497.128906 C361.888285,495.8164 362.169532,494.292977 362.169532,492.558594 Z M426.614063,493.507812 C426.614063,498.078148 425.166812,501.681627 422.272266,504.318359 C419.377721,506.955091 415.668773,508.273438 411.145313,508.273438 L396.239063,508.273438 L396.239063,530 L392.33672,530 L392.33672,478.742188 L411.145313,478.742188 C413.418762,478.742188 415.487101,479.06445 417.350391,479.708984 C419.213682,480.353519 420.836713,481.308587 422.219532,482.574219 C423.602351,483.83985 424.680466,485.410147 425.453907,487.285156 C426.227348,489.160166 426.614063,491.234364 426.614063,493.507812 Z M422.746876,493.507812 C422.746876,489.757794 421.662902,486.933603 419.494923,485.035156 C417.326943,483.136709 414.403144,482.1875 410.723438,482.1875 L396.239063,482.1875 L396.239063,504.792969 L410.723438,504.792969 C414.379707,504.792969 417.297646,503.849619 419.477345,501.962891 C421.657043,500.076162 422.746876,497.257831 422.746876,493.507812 Z M466.271876,530 L435.158595,530 L435.158595,478.742188 L439.060938,478.742188 L439.060938,526.554688 L466.271876,526.554688 L466.271876,530 Z M508.07422,530 L503.890626,530 L499.425782,517.554688 L475.519532,517.554688 L471.089845,530 L466.906251,530 L485.750001,478.742188 L489.23047,478.742188 L508.07422,530 Z M498.23047,514.074219 L487.472657,483.910156 L476.750001,514.074219 L498.23047,514.074219 Z M543.196876,482.1875 L527.868751,482.1875 L527.868751,530 L524.001564,530 L524.001564,482.1875 L508.708595,482.1875 L508.708595,478.742188 L543.196876,478.742188 L543.196876,482.1875 Z M581.800001,482.1875 L554.589064,482.1875 L554.589064,503.28125 L577.757032,503.28125 L577.757032,506.726562 L554.589064,506.726562 L554.589064,530 L550.68672,530 L550.68672,478.742188 L581.800001,478.742188 L581.800001,482.1875 Z M622.688282,504.371094 C622.688282,508.988304 622.606252,512.386708 622.442189,514.566406 C622.278125,516.746105 621.867973,518.679679 621.21172,520.367188 C620.555467,522.054696 619.465634,523.660149 617.942189,525.183594 C616.278118,526.847665 614.338684,528.136714 612.123829,529.050781 C609.908975,529.964848 607.582826,530.421875 605.145314,530.421875 C602.707802,530.421875 600.375794,529.964848 598.14922,529.050781 C595.922646,528.136714 593.977353,526.847665 592.313282,525.183594 C590.789837,523.660149 589.700005,522.054696 589.043751,520.367188 C588.387498,518.679679 587.977346,516.746105 587.813282,514.566406 C587.649219,512.386708 587.567189,508.988304 587.567189,504.371094 C587.567189,499.753883 587.649219,496.35548 587.813282,494.175781 C587.977346,491.996083 588.387498,490.062508 589.043751,488.375 C589.700005,486.687492 590.789837,485.082039 592.313282,483.558594 C593.977353,481.894523 595.916787,480.605473 598.131642,479.691406 C600.346497,478.777339 602.684364,478.320312 605.145314,478.320312 C607.606264,478.320312 609.938271,478.777339 612.141407,479.691406 C614.344544,480.605473 616.278118,481.894523 617.942189,483.558594 C619.465634,485.082039 620.555467,486.687492 621.21172,488.375 C621.867973,490.062508 622.278125,491.996083 622.442189,494.175781 C622.606252,496.35548 622.688282,499.753883 622.688282,504.371094 Z M618.821095,504.371094 C618.821095,500.316386 618.739065,497.222667 618.575001,495.089844 C618.410938,492.957021 618.04766,491.15821 617.485157,489.693359 C616.922655,488.228508 616.043757,486.898443 614.848439,485.703125 C613.535932,484.390618 612.053525,483.406253 610.401173,482.75 C608.748821,482.093747 606.996885,481.765625 605.145314,481.765625 C603.31718,481.765625 601.565244,482.093747 599.889454,482.75 C598.213665,483.406253 596.719539,484.390618 595.407032,485.703125 C594.492965,486.617192 593.783988,487.566401 593.280079,488.550781 C592.776171,489.535161 592.383596,490.777336 592.102345,492.277344 C591.821094,493.777351 591.645314,495.488272 591.575001,497.410156 C591.504688,499.332041 591.469532,501.65233 591.469532,504.371094 C591.469532,508.425802 591.551563,511.513661 591.715626,513.634766 C591.87969,515.75587 592.242967,517.55468 592.80547,519.03125 C593.367973,520.50782 594.235152,521.832025 595.407032,523.003906 C596.696101,524.292975 598.184368,525.27734 599.871876,525.957031 C601.559385,526.636722 603.31718,526.976562 605.145314,526.976562 C606.996885,526.976562 608.75468,526.636722 610.418751,525.957031 C612.082822,525.27734 613.55937,524.292975 614.848439,523.003906 C616.067195,521.78515 616.951952,520.449226 617.502736,518.996094 C618.05352,517.542961 618.410938,515.75587 618.575001,513.634766 C618.739065,511.513661 618.821095,508.425802 618.821095,504.371094 Z M668.67422,530 L664.139064,530 L651.904689,506.375 L637.807033,506.375 L637.807033,530 L633.904689,530 L633.904689,478.742188 L653.416408,478.742188 C656.252359,478.742188 658.777725,479.275385 660.992579,480.341797 C663.207434,481.408208 664.947651,482.978505 666.213283,485.052734 C667.478914,487.126963 668.11172,489.605454 668.11172,492.488281 C668.11172,496.2383 667.062902,499.3203 664.965236,501.734375 C662.867569,504.14845 659.978926,505.671872 656.29922,506.304688 L668.67422,530 Z M664.209376,492.558594 C664.209376,489.160139 663.183996,486.58204 661.133204,484.824219 C659.082413,483.066397 656.346112,482.1875 652.92422,482.1875 L637.807033,482.1875 L637.807033,502.929688 L652.92422,502.929688 C654.588291,502.929688 656.111713,502.712893 657.494533,502.279297 C658.877352,501.845701 660.060934,501.207035 661.045314,500.363281 C662.029694,499.519527 662.803124,498.441413 663.365626,497.128906 C663.928129,495.8164 664.209376,494.292977 664.209376,492.558594 Z M721.691408,530 L717.789064,530 L717.789064,487.742188 L702.250001,522.792969 L698.347658,522.792969 L682.527345,487.742188 L682.527345,530 L678.625001,530 L678.625001,478.742188 L682.527345,478.742188 L700.38672,518.257812 L717.789064,478.742188 L721.691408,478.742188 L721.691408,530 Z" id="ADVISOR-PLATFORM"></path>
        </g>
    </g>
</svg>