<?xml version="1.0" encoding="UTF-8"?>
<svg width="387px" height="53px" viewBox="0 0 387 53" version="1.1" xmlns="http://www.w3.org/2000/svg" xmlns:xlink="http://www.w3.org/1999/xlink">
    <!-- Generator: Sketch 41.2 (35397) - http://www.bohemiancoding.com/sketch -->
    <title>Challenge</title>
    <desc>Created with Sketch.</desc>
    <defs></defs>
    <g id="Brand-Design" stroke="none" stroke-width="1" fill="none" fill-rule="evenodd">
        <g id="Desktop-HD" transform="translate(-200.000000, -194.000000)" fill="#0000AD">
            <g id="Challenge" transform="translate(200.000000, 194.000000)">
                <path d="M17.4,52.5 C12.6,52.5 8.1,50.6 4.7,47.3 C0.1,42.7 0,38.2 0,26.7 C0,15.2 0.1,10.8 4.7,6.1 C8,2.8 12.6,1 17.4,1 C26.4,1 33,6.6 34.6,15.8 L30.7,15.8 C29.2,8.8 24.2,4.4 17.4,4.4 C13.8,4.4 10.4,5.8 7.8,8.3 C4.2,11.9 3.9,15.8 3.9,26.7 C3.9,37.6 4.2,41.5 7.8,45.1 C10.4,47.7 13.8,49 17.4,49 C24.2,49 29.4,44.6 30.9,37.6 L34.7,37.6 C33,46.9 26.3,52.5 17.4,52.5" id="Shape"></path>
                <polygon id="Shape" points="139.5 52.1 139.5 1.4 143.3 1.4 143.3 48.6 170.2 48.6 170.2 52.1"></polygon>
                <polygon id="Shape" points="180.1 52.1 180.1 1.4 184 1.4 184 48.6 210.9 48.6 210.9 52.1"></polygon>
                <polygon id="Shape" points="220.8 52.1 220.8 1.4 251.6 1.4 251.6 4.8 224.6 4.8 224.6 24.8 247.6 24.8 247.6 28.2 224.6 28.2 224.6 48.6 251.6 48.6 251.6 52.1"></polygon>
                <polygon id="Shape" points="295.4 52.1 266.2 8 266.2 52.1 262.3 52.1 262.3 1.4 266.2 1.4 295.4 45.3 295.4 1.4 299.3 1.4 299.3 52.1"></polygon>
                <path d="M340.8,46.7 C337.5,50.4 332.6,52.5 327.5,52.5 C322.7,52.5 318.2,50.6 314.8,47.3 C310.2,42.7 310.1,38.2 310.1,26.7 C310.1,15.2 310.2,10.8 314.8,6.1 C318.1,2.8 322.7,0.9 327.5,0.9 C336.4,0.9 343.2,6.7 344.8,15.7 L341,15.7 C339.5,8.7 334.4,4.3 327.5,4.3 C323.9,4.3 320.5,5.7 317.9,8.2 C314.3,11.8 314,15.7 314,26.6 C314,37.5 314.3,41.4 317.9,45 C320.5,47.6 323.9,48.9 327.5,48.9 C331.5,48.9 335.4,47.2 338,44 C340.2,41.3 341.1,38.3 341.1,34 L341.1,29.4 L327.5,29.4 L327.5,26 L344.9,26 L344.9,34.3 C344.9,39.7 343.8,43.5 340.8,46.7" id="Shape"></path>
                <polygon id="Shape" points="355.7 52.1 355.7 1.4 386.5 1.4 386.5 4.8 359.6 4.8 359.6 24.8 382.5 24.8 382.5 28.2 359.6 28.2 359.6 48.6 386.5 48.6 386.5 52.1"></polygon>
                <rect id="Rectangle-path" x="47.7" y="30.3" width="30.6" height="3"></rect>
                <rect id="Rectangle-path" x="47.7" y="19.9" width="30.6" height="3"></rect>
                <polygon id="Shape" points="49.6 24.8 49.6 1.4 45.8 1.4 45.8 52.1 49.6 52.1 49.6 28.2"></polygon>
                <polygon id="Shape" points="76 28.2 76 52.1 79.9 52.1 79.9 1.4 76 1.4 76 24.8"></polygon>
                <path d="M120.5,35.2 L98.7,35.2 L109.5,6.5 L120.5,35.2 Z M130.8,52.1 L111.4,1.4 L107.8,1.4 L88.6,52.1 L92.5,52.1 L97.5,38.7 L122,38.7 L127.1,52.1 L130.8,52.1 Z" id="Shape"></path>
            </g>
        </g>
    </g>
</svg>