<?xml version="1.0" encoding="UTF-8"?>
<svg width="538px" height="53px" viewBox="0 0 538 53" version="1.1" xmlns="http://www.w3.org/2000/svg" xmlns:xlink="http://www.w3.org/1999/xlink">
    <!-- Generator: Sketch 41.2 (35397) - http://www.bohemiancoding.com/sketch -->
    <title>Girls Who Fund</title>
    <desc>Created with Sketch.</desc>
    <defs></defs>
    <g id="Brand-Design" stroke="none" stroke-width="1" fill="none" fill-rule="evenodd">
        <g id="Desktop-HD" transform="translate(-200.000000, -322.000000)" fill="#0000AD">
            <g id="Girls-Who-Fund" transform="translate(200.000000, 322.000000)">
                <rect id="Rectangle-path" x="264" y="30.5" width="30.6" height="3"></rect>
                <rect id="Rectangle-path" x="264" y="20.1" width="30.6" height="3"></rect>
                <polygon id="Shape" points="262.1 1.6 262.1 52.3 265.9 52.3 265.9 28.4 265.9 25 265.9 1.6"></polygon>
                <polygon id="Shape" points="292.3 1.6 292.3 25 292.3 28.4 292.3 52.3 296.1 52.3 296.1 1.6"></polygon>
                <path d="M30.7,46.7 C27.4,50.4 22.5,52.5 17.4,52.5 C12.6,52.5 8.1,50.6 4.7,47.3 C0.1,42.7 0,38.2 0,26.7 C0,15.2 0.1,10.8 4.7,6.1 C8,2.8 12.6,1 17.4,1 C26.3,1 33.1,6.8 34.7,15.8 L30.9,15.8 C29.4,8.8 24.3,4.4 17.4,4.4 C13.8,4.4 10.4,5.8 7.8,8.3 C4.2,11.9 3.9,15.8 3.9,26.7 C3.9,37.6 4.2,41.5 7.8,45.1 C10.4,47.7 13.8,49 17.4,49 C21.4,49 25.3,47.3 27.9,44.1 C30.1,41.4 31,38.4 31,34.1 L31,29.5 L17.4,29.5 L17.4,26.1 L34.8,26.1 L34.8,34.4 C34.8,39.7 33.7,43.4 30.7,46.7 Z" id="Shape"></path>
                <polygon id="Shape" points="46 52.1 46 1.4 49.8 1.4 49.8 52.1"></polygon>
                <path d="M92.5,52.1 L80.4,28.7 L66.4,28.7 L66.4,52 L62.6,52 L62.6,1.4 L81.9,1.4 C90.2,1.4 96.4,6.2 96.4,15 C96.4,22.5 91.8,27.5 84.7,28.7 L97,52.1 L92.5,52.1 Z M81.4,4.8 L66.5,4.8 L66.5,25.3 L81.4,25.3 C87.9,25.3 92.6,22 92.6,15.1 C92.6,8.1 87.9,4.8 81.4,4.8 Z" id="Shape"></path>
                <polygon id="Shape" points="107.3 52.1 107.3 1.4 111.1 1.4 111.1 48.7 138 48.7 138 52.1"></polygon>
                <path d="M158.9,52.5 C151.4,52.5 146.7,50.4 142,45.8 L144.7,43.1 C149.3,47.7 153,49.1 159.1,49.1 C167.1,49.1 172.1,45.3 172.1,38.6 C172.1,35.6 171.2,33.1 169.3,31.5 C167.5,29.9 166.1,29.4 162,28.8 L156.1,27.9 C152.3,27.3 149.2,26.1 147.1,24.2 C144.4,21.9 143.1,18.8 143.1,14.9 C143.1,6.4 149.1,1 158.8,1 C165.1,1 169,2.7 173.4,6.5 L170.9,9 C167.8,6.2 164.6,4.3 158.6,4.3 C151.3,4.3 146.9,8.4 146.9,14.8 C146.9,17.7 147.8,19.9 149.5,21.4 C151.3,22.9 154.2,24.1 157,24.5 L162.5,25.4 C167.3,26.1 169.4,27 171.5,28.7 C174.3,31 175.9,34.5 175.9,38.5 C176,47 169.4,52.5 158.9,52.5 Z" id="Shape"></path>
                <polygon id="Shape" points="240.6 52.1 236.7 52.1 224.7 8 212.7 52.1 208.8 52.1 196.1 1.4 200.2 1.4 210.9 45.5 222.7 1.4 226.7 1.4 238.5 45.5 249.2 1.4 253.3 1.4"></polygon>
                <path d="M336.6,47.3 C333.3,50.6 328.7,52.5 323.9,52.5 C319.1,52.5 314.6,50.6 311.2,47.3 C306.6,42.7 306.5,38.2 306.5,26.7 C306.5,15.2 306.6,10.8 311.2,6.1 C314.5,2.7 319.1,0.9 323.9,0.9 C328.7,0.9 333.2,2.7 336.6,6.1 C341.2,10.7 341.3,15.2 341.3,26.7 C341.3,38.2 341.3,42.7 336.6,47.3 Z M333.6,8.3 C331,5.7 327.6,4.4 324,4.4 C320.4,4.4 317,5.8 314.4,8.3 C310.8,11.9 310.5,15.8 310.5,26.7 C310.5,37.6 310.8,41.5 314.4,45.1 C317,47.7 320.4,49 324,49 C327.6,49 331,47.6 333.6,45.1 C337.2,41.5 337.5,37.6 337.5,26.7 C337.5,15.8 337.2,11.9 333.6,8.3 Z" id="Shape"></path>
                <polygon id="Shape" points="373.5 4.8 373.5 25.7 396.4 25.7 396.4 29.1 373.5 29.1 373.5 52.1 369.7 52.1 369.7 1.4 400.4 1.4 400.4 4.8"></polygon>
                <path d="M426.6,52.5 C416.4,52.5 409.2,45.5 409.2,35.6 L409.2,1.4 L413,1.4 L413,35.1 C413,43.5 418.4,49.1 426.5,49.1 C434.6,49.1 440,43.5 440,35.1 L440,1.4 L443.8,1.4 L443.8,35.6 C443.9,45.5 436.7,52.5 426.6,52.5 Z" id="Shape"></path>
                <polygon id="Shape" points="488.5 52.1 459.3 8 459.3 52.1 455.5 52.1 455.5 1.4 459.3 1.4 488.6 45.3 488.6 1.4 492.4 1.4 492.4 52.1"></polygon>
                <path d="M533,47.4 C530,50.4 525.6,52 520.3,52 L503.3,52 L503.3,1.4 L520.3,1.4 C525.6,1.4 530,3 533,6 C538.1,11.1 537.9,19.2 537.9,26 C537.9,32.8 538.1,42.3 533,47.4 Z M530.3,8.7 C527.4,5.7 523.5,4.8 519.4,4.8 L507.2,4.8 L507.2,48.6 L519.4,48.6 C523.5,48.6 527.4,47.7 530.3,44.7 C534.4,40.6 534.1,31.6 534.1,26 C534.1,20.4 534.4,12.8 530.3,8.7 Z" id="Shape"></path>
            </g>
        </g>
    </g>
</svg>