<?xml version="1.0" encoding="UTF-8"?>
<svg width="291px" height="53px" viewBox="0 0 291 53" version="1.1" xmlns="http://www.w3.org/2000/svg" xmlns:xlink="http://www.w3.org/1999/xlink">
    <!-- Generator: Sketch 41.2 (35397) - http://www.bohemiancoding.com/sketch -->
    <title>Hashtag</title>
    <desc>Created with Sketch.</desc>
    <defs></defs>
    <g id="Brand-Design" stroke="none" stroke-width="1" fill="none" fill-rule="evenodd">
        <g id="Desktop-HD" transform="translate(-200.000000, -459.000000)" fill="#0000AD">
            <g id="Hashtag" transform="translate(200.000000, 459.000000)">
                <path d="M63,6.5 L52.4,36.3 L73.6,36.3 L63,6.5 Z M79.3,52.1 L74.9,39.8 L51.3,39.8 L46.9,52.1 L42.8,52.1 L61.5,1.4 L64.9,1.4 L83.5,52.1 L79.3,52.1 Z" id="Shape"></path>
                <path d="M106.7,52.5 C99.2,52.5 94.5,50.4 89.8,45.8 L92.5,43.1 C97.1,47.7 100.8,49.1 106.9,49.1 C114.9,49.1 119.9,45.3 119.9,38.6 C119.9,35.6 119,33.1 117.1,31.5 C115.2,29.9 113.9,29.4 109.8,28.8 L103.9,27.9 C100.1,27.3 97,26 94.9,24.2 C92.2,21.9 90.9,18.8 90.9,14.9 C90.9,6.4 97,1 106.6,1 C112.9,1 116.8,2.7 121.2,6.5 L118.7,9 C115.6,6.2 112.4,4.3 106.4,4.3 C99.1,4.3 94.7,8.4 94.7,14.8 C94.7,17.7 95.6,19.9 97.3,21.4 C99.1,22.9 102,24.1 104.8,24.5 L110.3,25.4 C115.1,26.1 117.2,27 119.3,28.7 C122.1,31 123.7,34.5 123.7,38.5 C123.8,47 117.3,52.5 106.7,52.5" id="Shape"></path>
                <polygon id="Shape" points="165 52.1 165 28.2 138.5 28.2 138.5 52.1 134.7 52.1 134.7 1.4 138.5 1.4 138.5 24.8 165 24.8 165 1.4 168.8 1.4 168.8 52.1"></polygon>
                <polygon id="Shape" points="197 4.8 197 52.1 193.1 52.1 193.1 4.8 178 4.8 178 1.4 212.1 1.4 212.1 4.8"></polygon>
                <path d="M231.2,6.5 L220.6,36.3 L241.8,36.3 L231.2,6.5 Z M247.4,52.1 L243,39.7 L219.4,39.7 L215,52 L210.9,52 L229.6,1.3 L233,1.3 L251.7,52 L247.4,52 L247.4,52.1 Z" id="Shape"></path>
                <path d="M286.6,46.7 C283.3,50.4 278.4,52.5 273.3,52.5 C268.5,52.5 264,50.6 260.6,47.3 C256,42.7 255.9,38.2 255.9,26.7 C255.9,15.2 256,10.8 260.6,6.1 C263.9,2.8 268.5,0.9 273.3,0.9 C282.2,0.9 289,6.7 290.6,15.7 L286.8,15.7 C285.3,8.7 280.2,4.3 273.3,4.3 C269.7,4.3 266.3,5.7 263.7,8.2 C260.1,11.8 259.8,15.7 259.8,26.6 C259.8,37.5 260.1,41.4 263.7,45 C266.3,47.6 269.7,48.9 273.3,48.9 C277.3,48.9 281.2,47.2 283.8,44 C286,41.3 286.9,38.3 286.9,34 L286.9,29.4 L273.3,29.4 L273.3,26 L290.7,26 L290.7,34.3 C290.8,39.7 289.6,43.5 286.6,46.7" id="Shape"></path>
                <rect id="Rectangle-path" x="2.8" y="30.3" width="30.6" height="3"></rect>
                <rect id="Rectangle-path" x="2.8" y="19.9" width="30.6" height="3"></rect>
                <polygon id="Shape" points="4.8 24.8 4.8 1.4 0.9 1.4 0.9 52.1 4.8 52.1 4.8 28.2"></polygon>
                <polygon id="Shape" points="31.2 28.2 31.2 52.1 35 52.1 35 1.4 31.2 1.4 31.2 24.8"></polygon>
            </g>
        </g>
    </g>
</svg>