<?xml version="1.0" encoding="UTF-8"?>
<svg width="483px" height="44px" viewBox="0 0 483 44" version="1.1" xmlns="http://www.w3.org/2000/svg" xmlns:xlink="http://www.w3.org/1999/xlink">
    <!-- Generator: Sketch 41.2 (35397) - http://www.bohemiancoding.com/sketch -->
    <title>#BUILTBYGIRLS</title>
    <desc>Created with Sketch.</desc>
    <defs></defs>
    <g id="Brand-Design" stroke="none" stroke-width="1" fill="none" fill-rule="evenodd">
        <g id="New-Logo" transform="translate(-134.000000, -144.000000)" fill="#FFFFFF">
            <path d="M172.31,162.1 L166.25,162.1 L164.99,169.6 L171.89,169.6 L170.27,177.88 L163.61,177.88 L162.05,187 L153.05,187 L154.61,177.88 L149.15,177.88 L147.59,187 L138.53,187 L140.09,177.88 L134.33,177.88 L135.95,169.6 L141.53,169.6 L142.79,162.1 L136.37,162.1 L137.99,153.82 L144.17,153.82 L145.79,144.1 L154.85,144.1 L153.23,153.82 L158.63,153.82 L160.25,144.1 L169.37,144.1 L167.63,153.82 L173.93,153.82 L172.31,162.1 Z M157.31,162.1 L151.85,162.1 L150.53,169.6 L155.99,169.6 C156.510003,166.399984 156.949998,163.900009 157.31,162.1 Z M201.03,187 L182.67,187 L182.67,145.06 L198.99,145.06 C201.830014,145.06 204.27999,145.399997 206.34,146.08 C208.40001,146.760003 209.949995,147.679994 210.99,148.84 C212.870009,151.000011 213.81,153.439986 213.81,156.16 C213.81,159.440016 212.750011,161.879992 210.63,163.48 C209.909996,164.040003 209.410001,164.389999 209.13,164.53 C208.849999,164.670001 208.350004,164.899998 207.63,165.22 C210.230013,165.780003 212.299992,166.949991 213.84,168.73 C215.380008,170.510009 216.15,172.719987 216.15,175.36 C216.15,178.280015 215.15001,180.859989 213.15,183.1 C210.829988,185.700013 206.790029,187 201.03,187 Z M192.03,162.04 L196.47,162.04 C199.070013,162.04 200.999994,161.760003 202.26,161.2 C203.520006,160.639997 204.15,159.430009 204.15,157.57 C204.15,155.709991 203.570006,154.480003 202.41,153.88 C201.249994,153.279997 199.290014,152.98 196.53,152.98 L192.03,152.98 L192.03,162.04 Z M192.03,179.08 L198.45,179.08 C201.130013,179.08 203.139993,178.750003 204.48,178.09 C205.820007,177.429997 206.49,176.13001 206.49,174.19 C206.49,172.24999 205.780007,170.970003 204.36,170.35 C202.939993,169.729997 200.670016,169.42 197.55,169.42 L192.03,169.42 L192.03,179.08 Z M242.41,179.08 C245.050013,179.08 247.139992,178.11001 248.68,176.17 C250.220008,174.22999 250.99,171.580017 250.99,168.22 L250.99,145.06 L260.35,145.06 L260.35,168.52 C260.35,174.60003 258.670017,179.269984 255.31,182.53 C251.949983,185.790016 247.650026,187.42 242.41,187.42 C237.169974,187.42 232.860017,185.780016 229.48,182.5 C226.099983,179.219984 224.41,174.56003 224.41,168.52 L224.41,145.06 L233.77,145.06 L233.77,168.22 C233.77,171.580017 234.549992,174.22999 236.11,176.17 C237.670008,178.11001 239.769987,179.08 242.41,179.08 Z M271.07,145.06 L280.43,145.06 L280.43,187 L271.07,187 L271.07,145.06 Z M291.75,187 L291.75,145.06 L301.11,145.06 L301.11,178.66 L318.99,178.66 L318.99,187 L291.75,187 Z M340.87,153.16 L340.87,187 L331.51,187 L331.51,153.16 L319.63,153.16 L319.63,145.06 L352.75,145.06 L352.75,153.16 L340.87,153.16 Z M378.95,187 L360.59,187 L360.59,145.06 L376.91,145.06 C379.750014,145.06 382.19999,145.399997 384.26,146.08 C386.32001,146.760003 387.869995,147.679994 388.91,148.84 C390.790009,151.000011 391.73,153.439986 391.73,156.16 C391.73,159.440016 390.670011,161.879992 388.55,163.48 C387.829996,164.040003 387.330001,164.389999 387.05,164.53 C386.769999,164.670001 386.270004,164.899998 385.55,165.22 C388.150013,165.780003 390.219992,166.949991 391.76,168.73 C393.300008,170.510009 394.07,172.719987 394.07,175.36 C394.07,178.280015 393.07001,180.859989 391.07,183.1 C388.749988,185.700013 384.710029,187 378.95,187 Z M369.95,162.04 L374.39,162.04 C376.990013,162.04 378.919994,161.760003 380.18,161.2 C381.440006,160.639997 382.07,159.430009 382.07,157.57 C382.07,155.709991 381.490006,154.480003 380.33,153.88 C379.169994,153.279997 377.210014,152.98 374.45,152.98 L369.95,152.98 L369.95,162.04 Z M369.95,179.08 L376.37,179.08 C379.050013,179.08 381.059993,178.750003 382.4,178.09 C383.740007,177.429997 384.41,176.13001 384.41,174.19 C384.41,172.24999 383.700007,170.970003 382.28,170.35 C380.859993,169.729997 378.590016,169.42 375.47,169.42 L369.95,169.42 L369.95,179.08 Z M419.79,187 L410.43,187 L410.43,170.44 L395.91,145.06 L406.05,145.06 L415.11,160.66 L424.17,145.06 L434.31,145.06 L419.79,170.44 L419.79,187 Z M467.05,165.64 L476.47,165.64 L476.47,180.52 C472.309979,185.160023 466.550037,187.48 459.19,187.48 C453.029969,187.48 447.860021,185.44002 443.68,181.36 C439.499979,177.27998 437.41,172.130031 437.41,165.91 C437.41,159.689969 439.539979,154.500021 443.8,150.34 C448.060021,146.179979 453.19997,144.1 459.22,144.1 C465.24003,144.1 470.469978,146.07998 474.91,150.04 L470.05,157.06 C468.169991,155.419992 466.440008,154.290003 464.86,153.67 C463.279992,153.049997 461.570009,152.74 459.73,152.74 C456.169982,152.74 453.170012,153.949988 450.73,156.37 C448.289988,158.790012 447.07,161.97998 447.07,165.94 C447.07,169.90002 448.239988,173.069988 450.58,175.45 C452.920012,177.830012 455.709984,179.02 458.95,179.02 C462.190016,179.02 464.889989,178.400006 467.05,177.16 L467.05,165.64 Z M485.81,145.06 L495.17,145.06 L495.17,187 L485.81,187 L485.81,145.06 Z M540.51,158.98 C540.51,165.700034 537.850027,170.03999 532.53,172 L543.15,187 L531.63,187 L522.33,173.62 L515.85,173.62 L515.85,187 L506.49,187 L506.49,145.06 L522.39,145.06 C528.910033,145.06 533.559986,146.159989 536.34,148.36 C539.120014,150.560011 540.51,154.099976 540.51,158.98 Z M529.23,163.96 C530.390006,162.919995 530.97,161.270011 530.97,159.01 C530.97,156.749989 530.370006,155.200004 529.17,154.36 C527.969994,153.519996 525.870015,153.1 522.87,153.1 L515.85,153.1 L515.85,165.52 L522.69,165.52 C525.890016,165.52 528.069994,165.000005 529.23,163.96 Z M551.11,187 L551.11,145.06 L560.47,145.06 L560.47,178.66 L578.35,178.66 L578.35,187 L551.11,187 Z M596,153.43 C595.099995,154.170004 594.65,155.149994 594.65,156.37 C594.65,157.590006 595.199995,158.559996 596.3,159.28 C597.400005,160.000004 599.93998,160.849995 603.92,161.83 C607.90002,162.810005 610.989989,164.27999 613.19,166.24 C615.390011,168.20001 616.49,171.059981 616.49,174.82 C616.49,178.580019 615.080014,181.629988 612.26,183.97 C609.439986,186.310012 605.730023,187.48 601.13,187.48 C594.489967,187.48 588.510027,185.020025 583.19,180.1 L588.77,173.26 C593.290023,177.22002 597.469981,179.2 601.31,179.2 C603.030009,179.2 604.379995,178.830004 605.36,178.09 C606.340005,177.349996 606.83,176.350006 606.83,175.09 C606.83,173.829994 606.310005,172.830004 605.27,172.09 C604.229995,171.349996 602.170015,170.600004 599.09,169.84 C594.209976,168.679994 590.640011,167.170009 588.38,165.31 C586.119989,163.449991 584.99,160.53002 584.99,156.55 C584.99,152.56998 586.419986,149.500011 589.28,147.34 C592.140014,145.179989 595.709979,144.1 599.99,144.1 C602.790014,144.1 605.589986,144.579995 608.39,145.54 C611.190014,146.500005 613.62999,147.859991 615.71,149.62 L610.97,156.46 C607.329982,153.699986 603.570019,152.32 599.69,152.32 C598.129992,152.32 596.900005,152.689996 596,153.43 Z" id="#BUILTBYGIRLS"></path>
        </g>
    </g>
</svg>