<?xml version="1.0" encoding="UTF-8"?>
<svg width="171px" height="50px" viewBox="0 0 171 50" version="1.1" xmlns="http://www.w3.org/2000/svg" xmlns:xlink="http://www.w3.org/1999/xlink">
    <!-- Generator: Sketch 41.2 (35397) - http://www.bohemiancoding.com/sketch -->
    <title>WAVE</title>
    <desc>Created with Sketch.</desc>
    <defs></defs>
    <g id="Brand-Design" stroke="none" stroke-width="1" fill="none" fill-rule="evenodd">
        <g id="Program-Logos" transform="translate(-102.000000, -679.000000)" fill="#0000AD">
            <path d="M158.524414,679.166016 L146.083008,729 L142.220703,729 L130.462891,685.591797 L118.705078,729 L114.876953,729 L102.401367,679.166016 L106.400391,679.166016 L116.893555,722.505859 L128.514648,679.166016 L132.445312,679.166016 L144.066406,722.505859 L154.55957,679.166016 L158.524414,679.166016 Z M199.509766,729 L195.442383,729 L191.101562,716.900391 L167.859375,716.900391 L163.552734,729 L159.485352,729 L177.805664,679.166016 L181.189453,679.166016 L199.509766,729 Z M189.939453,713.516602 L179.480469,684.19043 L169.055664,713.516602 L189.939453,713.516602 Z M235.744141,679.166016 L219.37207,729 L216.15918,729 L199.75293,679.166016 L203.751953,679.166016 L217.765625,722.334961 L231.745117,679.166016 L235.744141,679.166016 Z M272.901367,729 L242.652344,729 L242.652344,679.166016 L272.901367,679.166016 L272.901367,682.515625 L246.446289,682.515625 L246.446289,702.203125 L268.970703,702.203125 L268.970703,705.552734 L246.446289,705.552734 L246.446289,725.650391 L272.901367,725.650391 L272.901367,729 Z" id="WAVE"></path>
        </g>
    </g>
</svg>